<svg xmlns="http://www.w3.org/2000/svg" xml:space="preserve" style="enable-background:new 0 0 24 24" viewBox="0 0 24 24" id="controller">
  <g id="Layer_2">
    <g>
      <circle cx="16" cy="17" r="1"></circle>
      <circle cx="16" cy="13" r="1"></circle>
      <circle cx="18" cy="15" r="1"></circle>
      <circle cx="14" cy="15" r="1"></circle>
      <path d="M10,14H9v-1c0-0.552246-0.447754-1-1-1s-1,0.447754-1,1v1H6c-0.552246,0-1,0.447754-1,1s0.447754,1,1,1h1v1
			c0,0.552246,0.447754,1,1,1s1-0.447754,1-1v-1h1c0.552246,0,1-0.447754,1-1S10.552246,14,10,14z"></path>
      <path d="M18.772949,8.826172C16.881714,8.358948,14.944031,8.103638,13,8.035278V8c0-0.55127,0.44873-1,1-1
			c1.654297,0,3-1.345703,3-3V3c0-0.552246-0.447754-1-1-1s-1,0.447754-1,1v1c0,0.55127-0.44873,1-1,1c-1.654297,0-3,1.345703-3,3
			v0.035278C9.05603,8.103638,7.118469,8.358826,5.227539,8.825684c-1.174316,0.289551-2.135742,1.186035-2.572754,2.398926
			c-0.876465,2.43457-0.876465,5.116211,0,7.550781c0.437012,1.212891,1.398438,2.109375,2.572266,2.398438
			C7.442871,21.721191,9.721191,21.994629,12,21.994629c2.27832,0,4.557617-0.273438,6.772461-0.820312
			c1.174316-0.289551,2.135742-1.186035,2.572754-2.398926c0.876465-2.43457,0.876465-5.116211,0-7.550781
			C20.908203,10.012207,19.946777,9.115234,18.772949,8.826172z M19.463379,18.097656
			c-0.209473,0.581543-0.646484,1.005859-1.169922,1.134766C14.176758,20.248535,9.824707,20.25,5.706055,19.231934
			c-0.522949-0.128418-0.959961-0.552734-1.169434-1.134277c-0.719238-1.997559-0.719238-4.197754,0-6.195312
			c0.209473-0.581543,0.646484-1.005859,1.169922-1.134766C7.765137,10.259277,9.882324,10.005371,12,10.005371
			s4.234863,0.253906,6.293457,0.762207c0,0,0.000488,0,0.000488,0.000488c0.522949,0.128418,0.959961,0.552734,1.169434,1.134277
			C20.182617,13.899902,20.182617,16.100098,19.463379,18.097656z"></path>
    </g>
  </g>
</svg>
