<svg xmlns="http://www.w3.org/2000/svg" viewBox="0 0 168 168" id="magazine">
  <path fill="#0bceb2" d="M134.01953 113.16931c-2.87793-.57166-5.80029-1.2674-8.686-2.06677-11.373-3.15143-21.3125-3.45728-29.54541-.90387a2.0009 2.0009 0 0 0 1.18359 3.82275c7.48877-2.32086 16.67236-2.00616 27.29443.939 2.98047.82574 5.99951 1.54395 8.97412 2.13519a2.00146 2.00146 0 0 0 .7793-3.92633zM95.78809 80.17957a1.99989 1.99989 0 0 0-1.4082 1.91138V102.1037a1.99949 1.99949 0 0 0 2.5918 1.91132c7.48877-2.3208 16.67236-2.0061 27.29443.93909 2.98047.82574 5.99951 1.54395 8.97412 2.13513a2.00053 2.00053 0 0 0 2.38965-1.96313V85.1134a2.002 2.002 0 0 0-1.61035-1.9632c-2.87793-.57166-5.80029-1.2674-8.686-2.06671C113.96045 77.933 104.021 77.62622 95.78809 80.17957zm17.8418 18.62762a54.67934 54.67934 0 0 0-5.80225-.32593 42.279 42.279 0 0 0-9.44775 1.01428V93.6087a41.78283 41.78283 0 0 1 15.25-.7821zm4-15.3847c2.14679.38989 4.35394.886 6.63623 1.51892 2.44385.67621 4.91406 1.28107 7.36377 1.80292v5.89032c-2.09888-.46265-4.20508-.96552-6.29639-1.5448a78.03573 78.03573 0 0 0-7.70361-1.73163zm0 9.99988c2.14551.38977 4.35553.89319 6.63623 1.52539 2.44537.67749 4.91235 1.26147 7.36377 1.78345v5.93042c-2.09766-.46216-4.20654-.986-6.29639-1.56543a77.9886 77.9886 0 0 0-7.70361-1.72876zm-4-4.62231a46.19106 46.19106 0 0 0-15.25.69806V83.60266a41.763 41.763 0 0 1 15.25-.78864zM34.37793 117.13373a1.98881 1.98881 0 0 0 .3916-.03809c2.98633-.59418 6.00293-1.31238 8.96436-2.13519 10.62891-2.94421 19.81543-3.26086 27.3042-.939a2.0009 2.0009 0 0 0 1.18359-3.82275c-8.23047-2.55341-18.17432-2.24756-29.55664.90485-2.86768.79645-5.78613 1.49219-8.6748 2.0658a2.00153 2.00153 0 0 0 .3877 3.96442zM34.37988 107.12738a2.018 2.018 0 0 0 .38965-.03815c2.98633-.59412 6.00293-1.31232 8.96436-2.13513 10.62891-2.94421 19.81543-3.26086 27.3042-.93909a1.99949 1.99949 0 0 0 2.5918-1.91132V82.09094a1.99989 1.99989 0 0 0-1.4082-1.91138c-8.23047-2.55334-18.17432-2.2475-29.55664.90491-2.86768.79639-5.78613 1.49213-8.6748 2.06573a2.002 2.002 0 0 0-1.61035 1.9632v20.0127a2.00041 2.00041 0 0 0 2 2.00128zm2-20.38306c2.457-.52283 4.92383-1.12769 7.354-1.80292 9.97168-2.76349 18.67383-3.212 25.896-1.33875V99.49554C61.93164 97.73273 52.877 98.26825 42.665 101.09717c-2.07861.57751-4.18359 1.10132-6.28516 1.56445zM134.01953 122.175c-2.87793-.57166-5.80029-1.26746-8.686-2.06677-11.373-3.15045-21.3125-3.45825-29.54541-.90387a2.00087 2.00087 0 0 0 1.18359 3.82269c7.48877-2.32178 16.67236-2.00513 27.29443.93909 2.98047.82574 5.99951 1.54395 8.97412 2.13513a2.00143 2.00143 0 0 0 .7793-3.92627zM71.03809 123.0271a2.00087 2.00087 0 0 0 1.18359-3.82269c-8.23-2.55243-18.17432-2.24658-29.55518.90387-2.88574.79932-5.80811 1.49512-8.686 2.06677a2.00143 2.00143 0 0 0 .7793 3.92627c2.97461-.59119 5.99365-1.30939 8.97412-2.13513C54.36279 121.022 63.54932 120.70532 71.03809 123.0271z"></path>
  <circle cx="2" cy="149" r="2" fill="#2d4356"></circle>
  <path fill="#2d4356" d="M11 147H8a2 2 0 0 0 0 4h3a2 2 0 0 0 0-4zM160 147h-3a2 2 0 0 0 0 4h3a2 2 0 0 0 0-4z"></path>
  <circle cx="166" cy="149" r="2" fill="#2d4356"></circle>
  <path fill="#0bceb2" d="M118.15387 155h-8.30774a2.00641 2.00641 0 0 0 0 4h8.30774a2.00641 2.00641 0 0 0 0-4zM58.15387 155H49.84613a2.00641 2.00641 0 0 0 0 4h8.30774a2.00641 2.00641 0 0 0 0-4zM104 155H64a2 2 0 0 0 0 4H79.94v2H72a2 2 0 0 0 0 4H97a2 2 0 0 0 0-4H88.06v-2H104a2 2 0 0 0 0-4z"></path>
  <path fill="#2d4356" d="M150.72131 147h-2.94116A1.9912 1.9912 0 0 0 148 146.10431V67.83191a2.00132 2.00132 0 0 0-1.77344-1.98859 136.40318 136.40318 0 0 1-20.894-3.99182C99.97217 54.81677 88.03027 62.55316 84 66.30359 79.9707 62.55316 68.03174 54.8158 42.668 61.8515a136.421 136.421 0 0 1-20.89453 3.99182A2.00132 2.00132 0 0 0 20 67.83191v78.2724A1.9912 1.9912 0 0 0 20.21985 147H17.27869a2.017 2.017 0 1 0 0 4H150.72131a2.017 2.017 0 1 0 0-4zM144 135.81506a135.11333 135.11333 0 0 1-18.66748-3.69427c-22.01733-6.11316-33.92059-.26746-39.33252 4.17468v-56.516c1.84277-2.39728 11.90741-13.27167 38.26416-5.95258A139.60957 139.60957 0 0 0 144 77.70129zM24 69.60742a139.34959 139.34959 0 0 0 19.73682-3.898c28.90771-8.02264 38.54785 4.57715 38.63232 4.69244a1.99992 1.99992 0 0 0 3.26172 0c.09131-.129 9.478-12.78448 38.63281-4.69244A139.329 139.329 0 0 0 144 69.60742v4.05682A135.14674 135.14674 0 0 1 125.33252 69.97C100.03809 62.947 88.08838 71.70837 84 75.99139c-4.08789-4.283-16.04-13.04053-41.33154-6.0224A135.05893 135.05893 0 0 1 24 73.66425zm0 8.09387a139.51894 139.51894 0 0 0 19.73682-3.87537c26.38086-7.31812 36.43933 3.578 38.26318 5.952v56.51758c-5.41174-4.44147-17.31531-10.28448-39.332-4.17566A135.00577 135.00577 0 0 1 24 135.81506zm0 62.151a139.23816 139.23816 0 0 0 19.73682-3.87555c28.86426-8.008 38.19482 5.79767 38.57129 6.37909a1.9994 1.9994 0 0 0 1.68262.92828h.0127a2.01035 2.01035 0 0 0 1.68213-.91754c.38281-.59216 9.71582-14.40369 38.57813-6.38885A139.34038 139.34038 0 0 0 144 139.85236V143.845a134.70927 134.70927 0 0 1-18.66748-3.72015c-22.76953-6.3194-34.79687 1.242-39.93994 6.31165A1.97026 1.97026 0 0 1 84.14563 147h-.29126a1.97026 1.97026 0 0 1-1.24695-.56348c-3.75-3.69568-11.15723-8.71649-23.72217-8.71649A60.74306 60.74306 0 0 0 42.668 140.12488 134.73081 134.73081 0 0 1 24 143.845zM138.13379 147H90.92163c5.56116-4.00269 15.89948-7.85736 33.342-3.01715A134.8631 134.8631 0 0 0 138.13379 147zm-94.397-3.01813c17.43939-4.84027 27.77954-.9848 33.34167 3.01813H29.866A134.74906 134.74906 0 0 0 43.73682 143.98187zM68.30471 9a3 3 0 1 0-3-3A3.00344 3.00344 0 0 0 68.30471 9zm0-4.5a1.5 1.5 0 1 1-1.5 1.5A1.50148 1.50148 0 0 1 68.30471 4.5zM158.30471 70a2 2 0 1 0 2 2A2.00229 2.00229 0 0 0 158.30471 70zm0 3a1 1 0 1 1 1-1A1.001 1.001 0 0 1 158.30471 73zM48 40a2 2 0 1 0 2 2A2.00229 2.00229 0 0 0 48 40zm0 3a1 1 0 1 1 1-1A1.001 1.001 0 0 1 48 43zM158.30471 11a2 2 0 1 0 2 2A2.00229 2.00229 0 0 0 158.30471 11zm0 3a1 1 0 1 1 1-1A1.001 1.001 0 0 1 158.30471 14zM17.30471 29a2 2 0 1 0-2 2A2.00229 2.00229 0 0 0 17.30471 29zm-3 0a1 1 0 1 1 1 1A1.001 1.001 0 0 1 14.30471 29z"></path>
  <polygon fill="#0bceb2" points="10.888 70.011 12.375 68.056 11.436 67.524 10.481 69.714 10.45 69.714 9.48 67.539 8.525 68.087 9.996 69.996 9.996 70.027 7.695 69.73 7.695 70.794 10.011 70.497 10.011 70.528 8.525 72.436 9.416 73 10.434 70.794 10.465 70.794 11.404 72.984 12.39 72.421 10.888 70.543 10.888 70.512 13.25 70.794 13.25 69.73 10.888 70.042 10.888 70.011"></polygon>
  <polygon fill="#0bceb2" points="83.734 50.297 82.878 51.396 83.392 51.721 83.978 50.45 83.996 50.45 84.536 51.712 85.104 51.388 84.239 50.306 84.239 50.288 85.599 50.45 85.599 49.838 84.239 50.018 84.239 50 85.095 48.874 84.555 48.568 84.005 49.829 83.987 49.829 83.429 48.576 82.878 48.892 83.726 49.991 83.726 50.009 82.401 49.838 82.401 50.45 83.734 50.279 83.734 50.297"></polygon>
  <polygon fill="#0bceb2" points="131.63 42.521 131.63 41.478 129.313 41.785 129.313 41.754 130.771 39.836 129.85 39.314 128.914 41.462 128.883 41.462 127.932 39.329 126.995 39.867 128.438 41.739 128.438 41.77 126.182 41.478 126.182 42.521 128.453 42.23 128.453 42.261 126.995 44.133 127.87 44.686 128.868 42.521 128.898 42.521 129.819 44.67 130.786 44.118 129.313 42.276 129.313 42.245 131.63 42.521"></polygon>
  <polygon fill="#0bceb2" points="108.351 10.788 109.609 9.133 108.815 8.683 108.008 10.536 107.981 10.536 107.16 8.696 106.352 9.16 107.597 10.775 107.597 10.801 105.65 10.55 105.65 11.45 107.61 11.199 107.61 11.225 106.352 12.84 107.106 13.317 107.968 11.45 107.994 11.45 108.788 13.303 109.622 12.827 108.351 11.238 108.351 11.212 110.35 11.45 110.35 10.55 108.351 10.814 108.351 10.788"></polygon>
</svg>
